<svg clip-rule="evenodd" fill-rule="evenodd" stroke-linejoin="round" stroke-miterlimit="1.41421" viewBox="0 0 2500 1500" xmlns="http://www.w3.org/2000/svg"><g fill-rule="nonzero" transform="matrix(4.56522 0 0 4.56522 108.696 -388.385)"><path d="m334.104 124 14.704 45.082-10.94 33.501-25.539-78.583h-114.483l-20.535 62.99-20.453-62.99h-136.858l42.993 69.815 58.896 180.906h110.823l22.272-68.388 22.21 68.388h121.245l81.561-250.721zm-255.808 62.722-28.331-45.992h94.734l23.802 73.31-40.656 124.884zm142.194 171.641h-81.354l66.444-204.109 40.615 125.03zm-1.716-217.633h81.395l28.952 88.923-40.739 125.174zm167.361 217.53h-81.334l61.543-189.075-9.264-28.455h99.821z" fill="#ffb612" data-index="0" style="opacity: 1;"></path><path d="m329.058 229.674-40.739 125.175-69.546-214.118h81.396zm28.021-88.943 9.223 28.455-61.542 189.075h81.333l70.849-217.53zm-212.381 0h-94.733l28.331 45.991 49.631 152.203 40.574-124.885zm-5.562 217.53h81.457l25.705-78.976-40.718-125.03z" fill="#5a1414" data-index="1" style="opacity: 1;"></path></g></svg>
