<svg clip-rule="evenodd" fill-rule="evenodd" stroke-linejoin="round" stroke-miterlimit="2" viewBox="0 0 1600 957" xmlns="http://www.w3.org/2000/svg"><g fill-rule="nonzero"><path d="m799.983 956.848c-112.321 0-299.612-29.575-457.788-112.982-154.816-81.61-267.363-176.28-316.93-266.615-16.763-30.574-25.498-64.741-25.281-98.843-.225-34.103 8.51-68.269 25.281-98.811 49.567-90.335 162.114-185.037 316.93-266.615 158.208-83.407 345.467-112.982 457.788-112.982 112.322 0 299.588 29.575 457.788 112.982 154.817 81.61 267.355 176.28 316.922 266.615 16.772 30.542 25.507 64.708 25.282 98.811.225 34.102-8.51 68.269-25.282 98.81-49.567 90.336-162.105 185.038-316.922 266.616-158.176 83.375-345.474 112.99-457.788 112.99" fill="#fff"/><path d="m1554.99 478.408c.225-27.432-6.847-54.501-20.067-78.565-44.608-81.321-152.221-171.632-298.752-248.852-150.847-79.523-328.735-107.656-436.195-107.656-107.459 0-285.34 28.133-436.194 107.656-146.524 77.22-254.112 167.523-298.753 248.852-13.187 24.024-20.291 51.101-20.066 78.565-.225 27.431 6.879 54.501 20.066 78.565 44.609 81.32 152.221 171.631 298.753 248.851 150.846 79.524 328.735 107.657 436.194 107.657 107.46 0 285.34-28.133 436.195-107.657 146.523-77.22 254.111-167.523 298.752-248.851 13.18-24.024 20.292-51.101 20.067-78.565z" fill="#115740"/><g fill="#fff"><path d="m1157.87 399.335-49.342 85.687c-5.216 9.079-1.19 20.689 8.542 24.539l89.917 35.577h-192.956l-29.63 51.456h289.567c6.108 0 11.773-3.271 14.811-8.564l49.35-85.687c5.215-9.079 1.181-20.689-8.551-24.539l-111.614-44.141h159.711l24.703-42.892h-229.665c-6.108 0-11.773 3.271-14.819 8.564h-.032z"/><path d="m1103.89 433.663 24.703-42.892h-273.792l-24.703 42.892h68.444l-93.854 162.963h136.896l93.854-162.963z"/><path d="m795.853 433.663 24.703-42.892h-222.433l-118.557 205.855h282.334l29.629-51.488h-145.438l19.777-34.296h76.962l24.703-42.891h-76.986l19.777-34.296h85.537z"/><path d="m1372.08 338.607s-20.292-4.109-79.904-8.242l-208.956-20.6c-114.853-10.167-215.651-36.632-309.119-102.396h-3.134l78.883 127.653h-399.293l-116.066 201.552c-3.07 5.293-8.703 8.572-14.819 8.572h-127.003l-29.63 51.456h254.015c12.223 0 23.522-6.542 29.63-17.16l128.45-222.991h847.003c-10.528-6.155-27.42-13.953-50.049-17.869v.033z"/></g></g></svg>
