<?xml version="1.0" encoding="UTF-8"?>
<!DOCTYPE svg PUBLIC "-//W3C//DTD SVG 1.1//EN" "http://www.w3.org/Graphics/SVG/1.1/DTD/svg11.dtd">
<!-- Creator: CorelDRAW 2019 (64-Bit) -->
<svg xmlns="http://www.w3.org/2000/svg" xml:space="preserve" version="1.1" style="shape-rendering:geometricPrecision; text-rendering:geometricPrecision; image-rendering:optimizeQuality; fill-rule:evenodd; clip-rule:evenodd"
viewBox="0 0 184.358 132.3424"
 xmlns:xlink="http://www.w3.org/1999/xlink"
 xmlns:xodm="http://www.corel.com/coreldraw/odm/2003">
 <defs>
  <style type="text/css">
    .fil0 {fill:#003494}
    .fil2 {fill:#D6D1CB}
    .fil5 {fill:#FF8100}
    .fil4 {fill:#FFA200}
    .fil3 {fill:#FFD000}
    .fil7 {fill:white}
    .fil1 {fill:url(#id0)}
    .fil6 {fill:url(#id1)}
  </style>
  <linearGradient id="id0" gradientUnits="userSpaceOnUse" x1="124.7095" y1="6.6402" x2="124.7095" y2="95.7072">
   <stop offset="0" style="stop-opacity:1; stop-color:#F5CD12"/>
   <stop offset="0.219608" style="stop-opacity:1; stop-color:#F5CD12"/>
   <stop offset="0.301961" style="stop-opacity:1; stop-color:#F5D321"/>
   <stop offset="0.470588" style="stop-opacity:1; stop-color:#F6E482"/>
   <stop offset="0.709804" style="stop-opacity:1; stop-color:#FEFEFE"/>
   <stop offset="1" style="stop-opacity:1; stop-color:#FEFEFE"/>
  </linearGradient>
  <linearGradient id="id1" gradientUnits="userSpaceOnUse" x1="38.4208" y1="67.8426" x2="145.1592" y2="67.8426">
   <stop offset="0" style="stop-opacity:1; stop-color:#F09E15"/>
   <stop offset="0.129412" style="stop-opacity:1; stop-color:#F1A214"/>
   <stop offset="0.278431" style="stop-opacity:1; stop-color:#F3B319"/>
   <stop offset="0.45098" style="stop-opacity:1; stop-color:#F5CA12"/>
   <stop offset="0.478431" style="stop-opacity:1; stop-color:#F5CD12"/>
   <stop offset="1" style="stop-opacity:1; stop-color:#F5CD12"/>
  </linearGradient>
 </defs>
 <g id="Layer_x0020_1">
  <metadata id="CorelCorpID_0Corel-Layer"/>
  <g id="_739354864">
   <path class="fil0" d="M161.8791 22.4777c-12.2586,-12.2616 -28.3069,-20.009 -45.5332,-21.9805 -17.2257,-1.9704 -34.6103,1.9524 -49.3205,11.1288 -8.3507,5.5401 -15.5834,12.6036 -21.3185,20.8218 -0.0199,0.0241 -0.0409,0.0475 -0.0615,0.0721l-15.8175 0 -29.8279 67.488 38.6974 0c5.5962,10.4317 14.0754,19.033 24.4262,24.7777 9.6895,5.3322 20.647,7.9297 31.6987,7.5136 11.0524,-0.4156 21.7831,-3.8293 31.0447,-9.8746 2.1836,-1.4299 3.1769,-4.1189 2.4459,-6.625 -0.7302,-2.506 -3.0126,-4.2404 -5.6227,-4.2724 -0.5902,0.0005 -1.1773,0.0881 -1.7424,0.2591 -3.8569,1.1583 -7.8631,1.7449 -11.89,1.7408 -11.5886,0.0276 -22.6373,-4.8905 -30.3724,-13.5192l36.1365 0 6.2059 -8.6474 24.0888 0.0024c0,0 -0.7336,1.864 -1.1356,2.7766l-2.5875 5.8708 39.4235 0 0.8399 -3.0847c3.5578,-13.0517 3.6013,-26.8113 0.1281,-39.8854 -3.4735,-13.0738 -10.3397,-24.9975 -19.9059,-34.5625zm15.7411 73.3486l0 0 -29.8125 0c1.2355,-2.8014 2.2559,-5.6926 3.0522,-8.6487l-32.0115 0 -6.1734 8.6487 -28.6961 0 42.9033 -60.1028 -0.005 -0.0019c-5.6548,-2.3105 -11.7095,-3.4823 -17.8185,-3.4488 -0.7797,0 -1.5544,0.02 -2.3235,0.0595 -23.2748,1.1728 -41.8363,19.8583 -41.8363,42.6576 0,1.4814 0.0784,2.9616 0.2361,4.4345l25.3446 0 -7.5472 10.6189c-2.3815,3.2021 -5.5382,5.7802 -10.3508,5.7802l-2.066 0c8.0358,13.637 22.7168,21.9717 38.5448,21.8832 4.4359,0.0045 8.8489,-0.6417 13.0972,-1.918 0.1732,-0.0535 0.3526,-0.0809 0.5337,-0.0825 0.7603,0.0315 1.4133,0.5507 1.6159,1.2838 0.2021,0.7337 -0.0919,1.5138 -0.7286,1.9309 -13.7145,8.953 -30.6256,11.551 -46.395,7.1265 -15.7694,-4.4244 -28.8611,-15.4403 -35.9161,-30.221l-34.8455 0 26.1306 -59.1216 15.0982 0c10.4612,-13.5924 26.5072,-21.7266 43.6544,-22.1291 0.4107,-0.0086 0.8256,-0.0131 1.2357,-0.0131 24.1648,0 44.4332,14.4592 52.6385,35.7297l-14.8576 20.8153 22.6225 0c-0.0921,-20.1817 -10.2051,-38.9993 -26.9856,-50.2127 -16.7806,-11.2134 -38.0357,-13.3573 -56.7177,-5.7207 16.601,-10.3478 36.6773,-13.553 55.6754,-8.8904 18.9982,4.6635 35.3076,16.8011 45.231,33.6597 9.9222,16.8587 12.617,37.0094 7.4729,55.8829zm-84.0886 -20.5854l0 0 -24.4448 0c0,-0.082 -0.0065,-0.166 -0.0065,-0.2501 0,-20.5083 16.6314,-37.4114 37.8677,-38.4812 0.7065,-0.0359 1.4168,-0.054 2.1094,-0.054 3.7573,-0.004 7.4995,0.4807 11.1318,1.4424l-26.6575 37.3429zm53.0048 -19.5861l0 0c1.0639,3.6752 1.75,7.45 2.0484,11.2648l-10.086 0 8.0376 -11.2648z"/>
   <path class="fil1" d="M69.2408 15.1742c15.0178,-6.1394 31.8677,-6.0133 46.7919,0.3491 14.9239,6.3623 26.6819,18.4325 32.652,33.5183 5.9687,15.0857 5.6537,31.9332 -0.877,46.7848l29.8125 0c5.1493,-18.8744 2.4569,-39.0282 -7.4652,-55.8893 -9.9223,-16.8612 -26.2342,-29.0003 -45.2351,-33.6623 -19.0003,-4.6625 -39.0785,-1.4534 -55.679,8.8994z"/>
   <path class="fil2" d="M145.173 50.3002l-5.7384 8.0417c-5.5013,-5.6567 -13.0595,-8.8439 -20.9502,-8.8353 -0.4926,0 -0.9812,0.0119 -1.4659,0.037l9.8633 -13.8201c7.3562,3.0262 13.7,8.0817 18.2912,14.5767zm5.687 36.8774l0 0c1.3878,-5.1571 2.0881,-10.4749 2.0842,-15.8155l0 -0.2575 -6.2043 0c1.4302,5.272 1.3597,10.8388 -0.2048,16.073l4.3249 0z"/>
   <path class="fil3" d="M123.5763 118.9244c-8.6252,5.6292 -18.6188,8.8078 -28.9116,9.1949 -10.2926,0.3876 -20.497,-2.0309 -29.5208,-6.996 -4.5379,-5.7196 -7.8881,-12.2885 -9.8536,-19.3201 6.3504,-0.296 15.5464,0.2531 22.3443,3.1747 8.4007,8.1992 19.6856,12.7717 31.4245,12.7322 4.436,0.0044 8.8485,-0.6417 13.097,-1.9179 0.1729,-0.0536 0.353,-0.0811 0.534,-0.0821 0.7596,0.0315 1.4123,0.5507 1.6149,1.2838 0.202,0.7337 -0.0926,1.5134 -0.7288,1.9305zm-58.4438 -39.4964l0 0c-0.1576,-1.4729 -0.2366,-2.9532 -0.2366,-4.434 0,-22.8018 18.5636,-41.4874 41.839,-42.6577 -26.9848,1.0979 -49.0835,21.21 -52.8548,47.0941l11.2524 -0.0024z"/>
   <path class="fil4" d="M70.5132 95.8263l-16.5281 0c0.3211,2.0156 0.7567,4.0114 1.3038,5.9774 6.3504,-0.2956 15.5463,0.2535 22.3443,3.1752 -2.7746,-2.7166 -5.1696,-5.7953 -7.1199,-9.1526z"/>
   <path class="fil5" d="M41.2674 95.8263c2.0605,4.308 4.6559,8.3389 7.7245,11.9981 1.6029,-2.469 3.7587,-4.5304 6.2969,-6.0208 -0.5471,-1.966 -0.9827,-3.9618 -1.3038,-5.9774l-12.7176 0z"/>
   <path class="fil6" d="M126.8772 35.7216c-5.6548,-2.3105 -11.7095,-3.4823 -17.8185,-3.4488 -0.7797,0 -1.5544,0.02 -2.3235,0.0595 -26.9836,1.0983 -49.0824,21.2106 -52.8538,47.0946l-15.3647 0 18.9255 -42.7222 -9.7916 0c10.4612,-13.5924 26.5072,-21.7266 43.6544,-22.1291 0.4107,-0.0086 0.8256,-0.0131 1.2357,-0.0131 24.1648,0 44.4332,14.4592 52.6398,35.7297l-0.0063 0.0096c-4.5924,-6.4975 -10.9387,-11.5541 -18.2969,-14.5802zm-71.5884 66.0811l0 0c-2.5381,1.4904 -4.694,3.5517 -6.2969,6.0204 4.518,5.3906 9.9937,9.9001 16.151,13.2997 -4.5374,-5.7196 -7.8877,-12.2885 -9.8532,-19.3201l-0.001 0z"/>
   <path class="fil7" d="M147.7629 78.7823c0,2.8431 -0.4135,5.6711 -1.2265,8.3953l-27.688 0 -6.1734 8.6487 -28.6961 0 33.0395 -46.2838c0.4858,-0.024 0.9747,-0.0359 1.4659,-0.0369 7.8907,-0.0081 15.449,3.1791 20.9502,8.8354l-9.113 12.7651 16.4182 0c0.6786,2.502 1.0231,5.0836 1.0231,7.6761zm-115.2104 -42.0776l0 0 -26.1306 59.1216 66.1572 0c4.812,0 7.9707,-2.5765 10.3503,-5.7807l7.5471 -10.6188 -51.9597 0 18.9255 -42.7222 -24.8898 0z"/>
  </g>
 </g>
</svg>
